<?xml version="1.0" standalone="no"?> <!DOCTYPE svg PUBLIC "-//W3C//DTD SVG 20010904//EN" "http://www.w3.org/TR/2001/REC-SVG-20010904/DTD/svg10.dtd"> <svg version="1.0" xmlns="http://www.w3.org/2000/svg" width="1800.000000pt" height="1803.000000pt" viewBox="0 0 1800.000000 1803.000000" preserveAspectRatio="xMidYMid meet"> <g transform="translate(0.000000,1803.000000) scale(0.100000,-0.100000)" fill="#76b8e5" stroke="none"> <path d="M8390 17970 c-8 -5 -69 -10 -135 -10 -66 0 -136 -5 -155 -11 -19 -6 -78 -15 -130 -20 -89 -10 -126 -14 -340 -38 -47 -5 -98 -14 -113 -20 -16 -6 -43 -11 -61 -11 -18 0 -68 -9 -112 -21 -43 -11 -106 -24 -139 -29 -62 -8 -165 -31 -370 -82 -66 -17 -138 -34 -160 -38 -22 -5 -59 -16 -82 -24 -23 -8 -88 -26 -145 -40 -57 -14 -150 -41 -208 -61 -58 -20 -135 -45 -172 -55 -36 -11 -81 -28 -100 -39 -18 -10 -53 -22 -77 -25 -23 -4 -59 -15 -80 -25 -37 -20 -71 -34 -256 -107 -60 -24 -171 -73 -245 -108 -255 -121 -345 -165 -370 -179 -14 -8 -68 -36 -120 -61 -104 -50 -252 -132 -297 -163 -15 -11 -55 -35 -88 -52 -80 -42 -341 -205 -405 -253 -14 -10 -83 -57 -155 -105 -71 -47 -144 -97 -162 -112 -18 -14 -56 -45 -85 -68 -29 -23 -77 -61 -107 -85 -30 -24 -87 -67 -125 -97 -146 -112 -319 -259 -455 -387 -53 -50 -118 -107 -146 -126 -53 -38 -305 -290 -305 -305 0 -5 -52 -60 -116 -123 -63 -63 -133 -140 -153 -170 -21 -30 -49 -64 -61 -75 -13 -11 -40 -42 -61 -70 -39 -50 -110 -140 -192 -244 -50 -64 -148 -199 -214 -296 -26 -38 -62 -88 -80 -109 -18 -22 -33 -44 -33 -49 0 -10 -62 -103 -131 -197 -22 -30 -52 -75 -65 -100 -14 -25 -52 -90 -84 -145 -33 -55 -81 -140 -106 -190 -26 -49 -59 -108 -74 -130 -28 -41 -280 -546 -280 -561 0 -4 -16 -42 -35 -84 -19 -41 -51 -118 -71 -170 -20 -52 -45 -112 -56 -133 -33 -65 -179 -486 -223 -642 -10 -33 -25 -85 -35 -115 -43 -133 -89 -303 -130 -485 -18 -77 -46 -196 -62 -264 -16 -67 -27 -125 -25 -128 3 -2 1 -19 -5 -36 -9 -30 -14 -65 -37 -238 -4 -37 -12 -72 -16 -79 -8 -13 -22 -140 -33 -305 -4 -55 -12 -107 -17 -115 -16 -25 -26 -303 -31 -895 -3 -368 -1 -574 5 -600 6 -22 13 -95 16 -163 3 -68 8 -129 12 -135 5 -7 11 -61 15 -122 8 -142 23 -268 33 -284 7 -13 16 -73 35 -236 5 -44 16 -109 25 -145 9 -36 20 -87 25 -115 21 -121 40 -214 54 -260 8 -27 24 -97 36 -154 12 -57 25 -112 31 -122 5 -10 20 -65 33 -121 13 -57 36 -134 51 -173 14 -38 32 -95 39 -125 21 -86 71 -238 138 -415 17 -44 45 -120 63 -170 41 -112 86 -217 192 -445 71 -154 230 -471 259 -517 19 -29 49 -83 68 -120 18 -38 59 -108 89 -158 31 -49 66 -107 77 -128 12 -21 37 -59 57 -85 20 -26 41 -58 47 -72 19 -42 246 -378 341 -504 50 -65 106 -140 125 -166 81 -110 122 -159 185 -220 37 -36 81 -85 98 -110 33 -48 151 -180 174 -193 10 -6 32 5 68 32 30 23 57 41 60 41 3 0 46 27 95 60 64 43 90 66 90 81 0 11 -33 59 -74 107 -41 48 -113 134 -160 192 -83 102 -95 117 -154 190 -136 168 -390 521 -497 691 -25 40 -68 106 -84 129 -10 14 -35 57 -56 95 -21 39 -51 89 -67 112 -15 23 -28 44 -28 47 0 4 -24 48 -53 99 -134 233 -378 750 -454 962 -7 22 -23 59 -33 81 -10 23 -22 55 -26 70 -4 16 -18 52 -30 80 -58 131 -226 674 -274 884 -85 371 -155 748 -194 1040 -29 212 -66 725 -66 906 0 144 10 191 43 200 12 2 429 3 927 1 871 -4 1346 -16 1760 -47 142 -10 653 -32 1200 -50 179 -6 415 -15 525 -20 110 -5 360 -14 555 -20 195 -5 396 -12 445 -15 50 -3 259 -12 465 -21 206 -8 439 -18 518 -23 140 -8 143 -8 175 -38 18 -16 59 -47 92 -68 33 -22 86 -60 119 -85 55 -42 112 -83 301 -215 44 -31 127 -90 185 -131 58 -41 143 -100 190 -132 47 -32 108 -74 135 -93 28 -20 106 -74 175 -121 219 -149 293 -200 364 -252 37 -28 125 -90 195 -138 362 -251 423 -288 467 -288 29 0 166 76 232 128 43 34 168 123 287 204 50 34 131 89 180 123 127 88 416 279 527 349 102 65 397 257 441 288 149 104 279 187 308 196 19 6 90 18 159 27 69 8 172 22 230 31 58 8 153 19 212 24 96 8 180 18 418 50 41 6 242 28 445 50 204 22 384 43 400 45 17 3 140 16 275 30 135 13 308 31 385 40 77 8 190 19 250 25 61 6 184 19 275 30 91 10 239 26 330 35 91 9 228 23 305 31 77 8 203 19 280 24 77 6 183 15 235 20 52 5 532 10 1067 10 l972 0 15 -22 c13 -18 16 -54 16 -188 -1 -441 -53 -944 -156 -1495 -23 -119 -120 -529 -149 -625 -8 -25 -27 -90 -44 -145 -17 -55 -42 -136 -55 -180 -44 -145 -100 -304 -216 -605 -41 -105 -95 -232 -167 -390 -98 -213 -259 -524 -400 -770 -36 -62 -208 -332 -278 -435 -96 -141 -405 -554 -489 -653 -39 -46 -102 -121 -140 -166 -268 -318 -620 -661 -1058 -1032 -156 -133 -739 -559 -796 -582 -18 -7 -76 -44 -149 -94 -23 -15 -44 -28 -47 -28 -3 0 -36 -19 -73 -43 -38 -24 -97 -59 -133 -79 -36 -19 -83 -46 -105 -58 -86 -49 -407 -210 -550 -274 -82 -38 -174 -79 -203 -92 -29 -13 -57 -24 -63 -24 -5 0 -31 -11 -57 -24 -26 -13 -63 -28 -82 -34 -19 -6 -100 -36 -180 -66 -80 -31 -149 -56 -153 -56 -5 0 -65 -20 -135 -44 -70 -24 -154 -51 -187 -61 -33 -9 -94 -28 -135 -41 -211 -66 -577 -146 -955 -208 -445 -72 -625 -93 -900 -101 -104 -3 -230 -11 -278 -16 -164 -18 -883 24 -1297 76 -188 23 -509 81 -695 125 -49 12 -110 25 -135 30 -39 6 -145 33 -373 94 -81 22 -97 21 -97 -7 0 -15 29 -53 85 -112 47 -49 85 -93 85 -98 0 -18 254 -268 291 -287 73 -38 324 -87 612 -119 48 -6 93 -14 100 -18 13 -8 131 -19 352 -31 77 -4 146 -11 154 -16 8 -5 84 -8 170 -7 116 1 169 -2 206 -14 40 -12 108 -15 327 -15 173 0 287 4 305 11 16 6 98 10 193 10 91 -1 183 4 205 10 22 6 103 15 180 20 176 11 299 24 350 38 22 6 57 11 77 11 21 0 57 4 80 9 24 6 68 15 98 22 30 7 82 14 115 15 58 2 163 26 259 58 26 9 71 16 100 16 30 0 70 7 90 15 20 9 85 27 144 40 126 30 212 53 382 106 69 22 132 39 139 39 17 0 248 78 276 93 11 6 43 16 70 23 42 11 229 82 300 114 11 5 44 18 72 30 29 11 83 35 120 53 38 19 86 40 107 47 22 7 84 35 137 62 54 27 117 55 140 63 24 9 56 26 73 38 17 13 76 45 131 72 55 26 114 58 130 70 17 12 59 37 95 56 36 18 84 46 106 61 23 16 45 28 49 28 3 0 25 13 48 29 23 15 66 40 96 55 29 15 139 86 245 157 300 203 307 208 559 401 34 26 78 58 97 72 19 13 44 34 55 46 11 12 40 36 65 53 25 16 70 56 100 87 30 32 64 62 75 68 79 41 733 692 849 844 19 26 53 66 76 89 22 23 40 46 40 51 0 5 30 42 68 83 83 91 141 159 172 205 13 19 27 37 30 40 4 3 21 25 38 50 18 25 55 74 82 110 27 36 74 101 105 145 31 44 79 111 106 150 27 38 49 73 49 78 0 4 21 38 47 75 79 113 103 150 103 158 0 4 7 16 17 26 9 10 32 49 52 86 43 81 85 155 127 225 48 79 344 665 344 681 0 8 20 52 45 97 24 46 45 90 45 97 0 7 9 33 20 58 26 57 69 174 127 344 25 74 65 188 90 253 25 66 53 149 63 185 10 37 38 146 64 242 25 96 53 202 61 235 46 190 65 272 65 286 0 9 9 42 21 75 19 56 26 94 48 274 5 41 17 109 26 150 17 73 24 133 43 336 5 56 13 108 18 115 19 30 26 269 26 879 0 614 -7 879 -26 909 -5 8 -13 62 -18 120 -15 193 -25 288 -32 299 -3 6 -11 48 -16 94 -16 131 -27 197 -49 282 -12 43 -21 89 -21 102 0 13 -4 43 -10 66 -5 24 -21 99 -36 168 -56 268 -57 272 -134 520 -17 52 -34 115 -40 140 -13 55 -126 385 -170 495 -17 44 -43 112 -56 150 -13 39 -35 93 -49 120 -13 28 -36 77 -49 110 -13 33 -38 94 -55 135 -43 101 -259 536 -289 580 -13 19 -37 62 -54 95 -34 68 -117 209 -219 370 -38 61 -82 135 -99 165 -17 30 -51 82 -76 115 -25 33 -74 103 -110 155 -78 114 -100 144 -144 200 -44 56 -67 87 -139 192 -33 47 -69 92 -79 100 -10 7 -31 31 -47 53 -16 22 -64 77 -107 121 -43 45 -78 86 -78 92 0 14 -755 764 -807 801 -22 16 -61 50 -85 74 -23 24 -59 54 -78 67 -19 13 -57 43 -85 67 -84 73 -238 198 -280 227 -99 67 -135 93 -173 128 -23 21 -64 49 -91 62 -27 14 -53 31 -56 37 -8 12 -145 101 -320 209 -58 36 -122 75 -141 88 -20 13 -79 46 -132 73 -52 27 -108 61 -124 74 -16 14 -35 25 -41 25 -7 0 -29 11 -49 25 -46 31 -533 280 -568 290 -14 4 -66 27 -116 51 -50 24 -156 68 -235 99 -79 31 -164 64 -189 75 -25 10 -67 24 -95 30 -27 6 -54 15 -60 20 -16 14 -611 205 -685 221 -19 4 -89 21 -155 38 -66 17 -128 31 -137 31 -9 0 -52 11 -95 24 -43 13 -112 29 -153 35 -41 7 -97 17 -125 23 -27 6 -75 14 -105 19 -30 4 -84 12 -120 17 -36 6 -99 15 -140 22 -41 6 -94 15 -118 21 -23 5 -73 9 -111 9 -38 0 -96 7 -128 15 -38 10 -87 13 -140 11 -51 -3 -100 0 -135 10 -43 11 -164 14 -643 14 -364 0 -596 -4 -605 -10z m1056 -385 c353 -20 623 -50 869 -97 61 -11 147 -27 193 -34 104 -16 302 -58 407 -86 44 -11 109 -27 145 -34 139 -27 278 -67 585 -167 197 -65 303 -102 328 -117 10 -6 53 -24 95 -39 99 -37 333 -131 352 -142 31 -18 78 -39 175 -80 55 -23 111 -49 125 -59 14 -10 35 -20 47 -24 12 -4 41 -18 65 -31 24 -13 68 -36 98 -50 30 -14 89 -46 130 -70 41 -24 103 -59 137 -77 125 -67 283 -164 451 -277 96 -64 181 -120 190 -126 79 -49 496 -366 657 -499 106 -89 451 -398 466 -418 3 -4 59 -63 125 -130 65 -68 157 -166 204 -218 47 -52 103 -115 126 -140 48 -54 215 -256 264 -320 19 -25 49 -63 68 -85 52 -62 162 -213 242 -330 25 -36 55 -79 67 -94 18 -23 108 -162 230 -357 19 -30 106 -177 118 -199 161 -294 312 -593 405 -805 23 -52 55 -123 71 -158 16 -35 29 -66 29 -69 0 -3 17 -47 37 -97 102 -255 270 -783 330 -1041 45 -192 105 -484 119 -575 47 -325 69 -489 85 -650 5 -58 14 -134 19 -170 5 -36 10 -92 10 -124 0 -106 98 -96 -933 -96 l-900 0 -43 25 c-24 14 -47 31 -51 38 -14 22 -204 174 -402 322 -37 27 -105 83 -240 195 -63 52 -151 124 -195 160 -179 143 -254 212 -269 248 -57 135 -87 209 -87 214 0 3 -16 40 -35 81 -19 41 -35 77 -35 81 0 3 -17 45 -39 93 -21 49 -55 126 -74 173 -20 47 -45 103 -55 125 -10 22 -36 78 -56 125 -21 47 -44 99 -52 115 -7 17 -23 55 -34 85 -12 30 -29 73 -39 95 -18 39 -65 145 -121 275 -57 130 -149 356 -168 415 -23 68 -105 273 -123 307 -24 46 -79 106 -110 118 -26 11 -45 11 -118 -3 -108 -21 -428 -72 -540 -86 -140 -18 -165 -15 -207 21 -38 34 -43 39 -216 266 -58 76 -141 182 -183 233 -42 52 -111 139 -153 194 -42 55 -116 150 -164 210 -49 61 -116 145 -151 189 -97 123 -125 153 -175 186 -40 27 -54 31 -94 27 -76 -7 -211 -86 -490 -288 -159 -115 -141 -112 -207 -40 -31 33 -99 115 -151 182 -52 67 -107 136 -121 153 -61 74 -157 196 -199 251 -25 33 -55 68 -67 78 -29 23 -124 87 -129 87 -8 0 -216 160 -278 214 -109 94 -229 200 -331 292 -55 49 -132 117 -170 150 -112 94 -542 466 -632 546 -175 156 -251 224 -323 288 -112 100 -210 181 -260 216 -124 86 -202 65 -338 -90 -25 -28 -97 -105 -161 -172 -112 -116 -189 -199 -392 -423 -96 -107 -247 -277 -283 -320 -12 -14 -32 -36 -46 -50 -14 -14 -59 -64 -100 -111 -41 -46 -86 -96 -100 -110 -50 -51 -268 -286 -299 -322 -44 -50 -111 -150 -111 -165 0 -6 -9 -28 -21 -47 -11 -19 -29 -57 -39 -83 -38 -99 -72 -179 -89 -213 -10 -19 -22 -46 -26 -60 -4 -14 -18 -47 -30 -75 -33 -72 -124 -273 -145 -320 -34 -76 -73 -160 -110 -240 -20 -44 -49 -105 -63 -135 -103 -223 -107 -230 -132 -240 -37 -14 -98 -13 -440 9 -533 35 -738 46 -847 46 l-107 0 -40 -39 c-45 -44 -91 -126 -169 -301 -29 -66 -61 -138 -71 -160 -76 -162 -112 -241 -178 -390 -41 -93 -87 -198 -104 -233 -16 -35 -29 -65 -29 -67 0 -2 -17 -41 -38 -87 -68 -147 -112 -245 -112 -252 0 -4 -13 -34 -29 -69 -69 -151 -241 -544 -241 -552 0 -4 -13 -37 -29 -73 -16 -37 -61 -146 -101 -242 -40 -96 -83 -195 -95 -220 -27 -53 -127 -150 -570 -555 -184 -168 -225 -206 -266 -247 l-47 -48 -789 0 c-778 0 -790 0 -808 20 -17 19 -18 31 -6 213 14 218 36 448 51 522 5 28 14 88 20 135 5 47 21 146 35 220 14 74 33 173 41 220 9 47 22 108 30 135 7 28 22 86 33 130 57 233 145 536 215 740 101 294 107 308 187 483 16 34 29 67 29 72 0 26 263 571 360 745 27 50 59 108 71 130 17 32 89 154 149 255 64 106 121 197 159 250 24 36 72 106 105 155 33 50 108 153 166 229 58 76 112 148 120 160 29 41 254 309 291 345 8 9 68 77 134 151 65 74 218 234 339 355 207 206 266 260 519 473 102 87 294 234 412 315 39 27 122 84 185 128 208 145 466 305 702 437 287 160 625 327 803 397 66 26 138 55 160 66 141 66 913 317 1090 354 33 7 105 24 160 38 147 37 332 75 400 82 33 4 105 16 160 26 175 34 642 87 870 99 121 7 225 13 230 15 29 10 507 3 731 -10z m-1235 -2007 c56 -55 200 -185 279 -254 25 -21 67 -60 95 -85 27 -26 120 -107 205 -180 85 -73 209 -181 275 -239 67 -58 141 -121 165 -140 104 -84 541 -470 568 -503 14 -16 8 -57 -8 -57 -5 0 -44 -35 -87 -77 -113 -112 -355 -343 -392 -375 -40 -34 -301 -276 -321 -297 -8 -9 -118 -110 -245 -226 -126 -115 -255 -234 -285 -262 -30 -29 -62 -53 -72 -53 -28 0 -60 68 -180 385 -16 44 -36 96 -43 115 -22 56 -115 307 -150 405 -18 50 -42 114 -54 143 -33 83 -28 215 24 637 8 66 22 185 30 265 9 80 20 174 26 210 5 36 13 110 19 165 45 480 45 475 78 475 10 0 43 -24 73 -52z m-509 -238 c-2 -52 -9 -129 -17 -170 -8 -41 -19 -118 -25 -170 -26 -224 -62 -553 -71 -650 -5 -58 -14 -134 -20 -170 -6 -36 -13 -110 -16 -165 -5 -107 -2 -119 87 -345 45 -115 131 -349 200 -540 20 -58 49 -136 64 -175 15 -38 50 -140 78 -225 28 -85 59 -176 69 -202 23 -56 24 -118 3 -173 -8 -22 -23 -65 -34 -95 -10 -30 -35 -100 -55 -155 -20 -55 -50 -138 -67 -185 -71 -198 -97 -270 -127 -350 -18 -47 -49 -132 -71 -190 -21 -58 -55 -148 -75 -200 -57 -152 -86 -232 -101 -279 -8 -24 -36 -103 -63 -175 -27 -72 -61 -165 -76 -206 -15 -41 -42 -118 -61 -170 -19 -52 -41 -115 -48 -140 -7 -25 -21 -63 -30 -85 -10 -22 -28 -71 -41 -110 -13 -38 -37 -108 -54 -155 -17 -47 -47 -130 -66 -185 -105 -292 -123 -335 -143 -359 -16 -18 -30 -18 -277 -12 -294 7 -679 23 -833 34 -121 8 -128 13 -137 101 -13 132 -62 504 -100 766 -9 61 -22 157 -30 215 -8 58 -21 152 -30 210 -27 177 -30 271 -12 347 9 38 30 129 46 203 17 74 37 155 46 179 8 24 15 55 15 70 0 14 9 58 20 96 30 108 77 301 131 540 17 77 44 194 59 260 16 66 36 154 45 195 16 70 23 96 55 210 22 74 66 178 162 380 39 82 47 98 81 165 9 17 30 62 48 100 18 39 43 90 54 115 12 25 60 131 105 235 85 193 103 225 126 225 11 0 109 -187 157 -300 8 -19 33 -75 55 -125 85 -190 86 -196 85 -272 -1 -40 -9 -114 -18 -165 -8 -51 -19 -151 -25 -223 -5 -71 -16 -195 -24 -275 -8 -80 -20 -194 -25 -255 -6 -60 -18 -177 -26 -260 -8 -82 -22 -231 -30 -330 -9 -99 -20 -207 -26 -241 -6 -33 -9 -76 -7 -95 l3 -34 16 45 c50 140 121 349 149 440 17 58 45 146 60 195 53 172 90 291 121 395 31 105 72 235 114 365 13 39 46 144 75 235 29 91 58 182 66 203 8 20 14 61 14 90 0 43 -8 65 -46 132 -25 44 -100 186 -167 315 -66 129 -136 264 -155 300 -19 36 -48 92 -66 124 -17 33 -39 73 -48 90 -32 59 -27 72 81 200 42 50 85 102 96 115 41 50 119 138 179 201 72 76 266 294 350 395 115 137 201 225 216 222 12 -2 14 -19 12 -97z m2511 -1565 c49 -60 126 -155 170 -210 44 -55 98 -118 118 -140 74 -79 84 -97 83 -145 -1 -37 -69 -263 -112 -370 -12 -28 -115 -354 -161 -505 -17 -55 -42 -136 -56 -180 -14 -44 -37 -117 -50 -162 -13 -46 -32 -109 -43 -140 -11 -32 -23 -71 -26 -88 -4 -16 -20 -73 -36 -125 -60 -198 -80 -266 -86 -300 -3 -19 -24 -93 -46 -165 -22 -71 -46 -152 -54 -180 -39 -132 -56 -191 -98 -325 -25 -80 -48 -155 -51 -167 -10 -36 14 -28 30 10 7 17 32 62 54 99 23 37 41 70 41 73 0 3 8 18 18 33 39 57 110 179 161 275 51 97 65 122 95 167 14 22 26 42 26 45 0 4 14 26 30 50 17 24 30 46 30 48 0 3 59 103 130 222 72 119 130 219 130 223 0 5 13 26 29 48 16 21 47 75 70 119 23 44 51 88 61 99 18 18 18 18 28 0 5 -11 12 -77 16 -149 4 -71 10 -177 15 -235 5 -58 14 -175 21 -260 6 -85 22 -259 36 -386 13 -127 29 -307 34 -400 20 -364 33 -407 132 -449 61 -25 106 -19 188 25 59 31 521 262 935 467 111 55 201 104 222 121 26 20 71 152 114 332 38 159 51 214 87 350 111 428 175 680 183 724 12 69 32 96 72 96 34 0 188 26 370 61 88 17 110 19 123 8 20 -16 45 -68 100 -209 25 -63 93 -225 151 -360 58 -135 120 -279 138 -320 68 -161 80 -186 102 -227 13 -23 23 -47 23 -52 0 -6 15 -43 34 -83 44 -95 96 -215 96 -221 0 -3 14 -35 30 -70 17 -36 30 -68 30 -71 0 -3 13 -34 29 -68 16 -35 64 -152 107 -261 73 -184 83 -203 134 -256 58 -61 164 -151 315 -266 50 -38 92 -72 95 -76 3 -3 48 -42 100 -85 53 -44 117 -97 143 -119 27 -22 81 -63 120 -91 71 -50 91 -79 66 -94 -6 -5 -53 -11 -103 -15 -126 -9 -481 -47 -751 -80 -60 -7 -141 -16 -180 -20 -171 -14 -1120 -120 -1445 -161 -130 -16 -253 -30 -385 -44 -49 -6 -124 -14 -165 -20 -41 -5 -158 -19 -260 -30 -102 -12 -255 -30 -340 -40 -131 -16 -176 -18 -290 -10 -74 5 -216 14 -315 20 -99 6 -252 15 -340 21 -273 17 -641 39 -850 49 -110 5 -265 14 -345 19 -80 6 -217 13 -305 16 -154 5 -332 16 -870 50 -137 9 -359 22 -493 29 -150 8 -247 17 -254 24 -10 10 13 106 44 182 11 27 50 139 128 370 27 80 64 183 81 230 56 154 100 275 109 300 5 14 16 43 24 65 32 86 110 306 152 425 24 69 59 170 79 225 70 191 147 410 160 455 11 37 70 196 140 380 7 19 27 73 44 120 18 47 49 130 71 185 21 55 42 111 46 125 3 14 15 37 26 52 18 27 204 203 388 368 52 47 124 112 160 145 37 33 109 98 160 145 165 149 240 219 450 420 113 108 238 227 279 266 41 38 94 91 119 117 66 69 77 65 185 -68z m1193 -193 c6 -4 80 -99 164 -212 85 -113 176 -233 204 -266 28 -34 72 -88 98 -120 25 -33 66 -83 90 -113 44 -55 62 -79 222 -282 50 -63 96 -120 104 -128 38 -38 45 -61 38 -124 -4 -34 -13 -82 -21 -107 -19 -65 -93 -347 -104 -400 -5 -25 -19 -81 -31 -125 -12 -44 -26 -96 -30 -115 -11 -45 -54 -210 -85 -325 -14 -49 -28 -104 -31 -121 -6 -33 -47 -84 -66 -84 -10 0 -194 -87 -293 -138 -16 -8 -75 -38 -130 -65 -55 -27 -146 -72 -203 -100 -128 -64 -128 -64 -142 88 -5 61 -14 160 -20 220 -6 61 -17 198 -25 305 -8 107 -21 265 -30 350 -22 219 -43 471 -55 640 -5 80 -14 197 -20 260 -25 274 -40 499 -40 590 l0 98 47 38 c26 22 57 46 69 54 131 90 170 119 203 151 36 36 65 46 87 31z m-6616 -932 c102 -6 221 -15 265 -20 44 -5 157 -14 250 -20 94 -7 176 -17 183 -22 16 -14 16 -22 -12 -141 -13 -56 -37 -165 -54 -242 -18 -77 -55 -241 -83 -365 -29 -124 -58 -250 -64 -280 -7 -30 -18 -75 -25 -100 -6 -25 -29 -124 -50 -220 -21 -96 -45 -201 -54 -233 -19 -68 -21 -230 -5 -357 21 -175 59 -436 104 -715 13 -82 28 -186 34 -230 6 -44 18 -132 27 -197 22 -163 23 -162 -114 -154 -59 3 -240 10 -402 16 -162 6 -369 15 -460 20 -91 5 -239 12 -330 15 -91 3 -226 10 -300 15 -148 11 -776 39 -935 43 -138 3 -137 9 12 151 65 62 138 130 163 152 25 21 91 80 147 129 56 50 115 100 131 112 32 24 101 152 157 289 20 49 40 98 45 109 5 11 32 76 61 145 28 69 59 143 69 165 10 22 60 137 111 255 50 118 99 233 109 255 74 166 107 239 166 375 114 262 145 332 180 408 19 40 34 75 34 79 0 3 8 24 19 47 10 23 26 58 35 79 8 20 22 37 31 37 15 0 45 -48 45 -73 0 -8 9 -35 20 -61 21 -45 223 -619 243 -686 10 -35 0 -100 -48 -305 -40 -174 -47 -205 -56 -265 -5 -36 -16 -90 -24 -120 -18 -68 -61 -295 -70 -370 -4 -30 -13 -80 -21 -110 -25 -98 -14 -143 19 -77 9 17 37 70 63 117 46 84 112 207 141 265 18 35 130 234 178 315 56 96 152 284 164 321 6 20 23 47 36 59 39 36 30 94 -43 295 -72 198 -143 398 -172 485 -15 47 -63 184 -105 305 -102 291 -102 290 -86 309 9 11 24 14 50 11 20 -3 119 -10 221 -15z m3540 -3825 c124 -8 329 -19 455 -25 392 -18 633 -34 935 -60 63 -6 232 -15 375 -20 143 -5 308 -14 368 -21 100 -12 107 -14 107 -35 0 -16 -12 -28 -42 -44 -90 -46 -878 -568 -1030 -682 -42 -32 -81 -58 -86 -58 -4 0 -33 -18 -62 -40 -29 -22 -62 -40 -71 -40 -16 0 -130 74 -259 166 -25 18 -97 67 -160 110 -63 43 -147 101 -186 130 -39 29 -84 59 -100 68 -29 16 -104 69 -316 222 -62 45 -149 106 -193 136 -233 156 -261 179 -252 201 6 17 164 15 517 -8z"/> <path d="M10510 6898 c-19 -5 -39 -13 -43 -17 -5 -5 -8 -105 -7 -224 0 -181 -2 -217 -15 -230 -16 -17 -29 -19 -220 -37 -76 -7 -133 -18 -155 -29 l-35 -18 0 -377 c0 -289 -3 -378 -12 -384 -7 -5 -59 -18 -115 -30 -57 -13 -168 -38 -248 -56 -80 -19 -160 -37 -177 -41 -41 -8 -42 -28 -8 -79 14 -20 25 -40 25 -44 0 -4 28 -48 61 -97 86 -125 95 -166 42 -186 -56 -21 -748 -156 -1053 -205 -47 -7 -114 -20 -150 -28 -36 -9 -121 -27 -190 -40 -69 -14 -181 -38 -250 -55 -69 -16 -226 -53 -350 -81 -124 -28 -259 -59 -300 -70 -41 -10 -158 -40 -260 -65 -102 -25 -216 -54 -255 -65 -211 -59 -436 -124 -555 -161 -74 -23 -166 -50 -204 -59 -37 -10 -91 -28 -120 -38 -28 -11 -96 -34 -151 -52 -136 -43 -754 -268 -793 -289 -9 -6 -60 -29 -112 -51 -52 -23 -108 -48 -125 -55 -16 -7 -64 -27 -105 -45 -270 -116 -784 -378 -1005 -513 -33 -20 -395 -261 -425 -282 -15 -11 -40 -29 -56 -39 -75 -51 -254 -188 -296 -228 -27 -24 -48 -51 -48 -60 0 -20 133 -159 191 -200 48 -34 78 -59 233 -198 48 -44 93 -80 98 -80 5 0 30 -19 56 -43 26 -24 59 -52 73 -63 15 -10 64 -48 110 -83 45 -36 117 -88 158 -117 198 -138 377 -257 412 -274 21 -11 53 -33 71 -49 18 -16 65 -45 103 -65 39 -20 99 -56 135 -78 176 -112 741 -408 885 -463 33 -13 112 -46 175 -75 63 -28 156 -67 205 -86 50 -19 108 -43 130 -53 77 -36 202 -74 218 -68 24 9 21 39 -8 94 -37 71 -107 236 -144 338 -18 50 -39 104 -46 120 -35 84 -65 311 -65 496 0 268 20 407 91 621 56 172 209 468 314 607 22 29 47 64 56 78 27 41 169 193 259 279 127 120 288 253 406 334 12 8 44 30 71 49 138 97 507 299 723 395 36 16 106 48 155 71 88 41 312 131 505 203 52 19 109 41 125 48 17 6 73 27 125 44 52 18 107 39 122 46 15 8 51 21 80 29 29 8 98 30 153 50 213 77 443 157 510 176 39 11 108 33 155 48 47 16 132 43 190 60 58 18 128 41 155 51 28 10 66 23 85 29 19 6 109 36 200 67 91 31 188 62 215 69 28 7 172 54 320 104 149 50 311 104 360 121 165 54 330 110 350 120 11 5 43 16 70 24 87 28 159 77 209 141 54 69 153 216 166 248 6 12 15 29 20 37 23 34 91 166 139 269 59 127 67 181 26 181 -49 0 -202 -44 -554 -160 -282 -92 -338 -93 -405 -5 -61 79 -68 112 -64 284 l3 156 -45 -1 c-25 0 -120 -13 -211 -29 -92 -15 -178 -25 -192 -21 -33 8 -34 17 -41 255 -4 113 -10 189 -17 197 -13 16 -58 17 -109 2z"/> </g> </svg>